<svg width="24" height="24" viewBox="0 0 24 24" fill="none" xmlns="http://www.w3.org/2000/svg">
<g clip-path="url(#clip0_48_1264)">
<path d="M23.3835 2.14978C22.8025 1.3795 21.9159 0.937765 20.9511 0.937765H20.5426V0.703397C20.5426 0.315095 20.2278 0.000291014 19.8395 0.000291014C19.4512 0.000291014 19.1364 0.315095 19.1364 0.703397V2.57835C19.1364 2.96665 19.4512 3.28145 19.8395 3.28145C20.2278 3.28145 20.5426 2.96665 20.5426 2.57835V2.34398H20.9511C21.4706 2.34398 21.948 2.58186 22.2608 2.9966C22.5737 3.41134 22.6713 3.93571 22.5285 4.43525L20.6624 10.9667C20.1416 12.7894 18.454 14.0624 16.5584 14.0624C14.6628 14.0624 12.9751 12.7894 12.4543 10.9667L10.5883 4.4352C10.4455 3.93567 10.5431 3.41129 10.856 2.99655C11.1688 2.58177 11.6462 2.34393 12.1657 2.34393H12.5741V2.5783C12.5741 2.9666 12.8889 3.2814 13.2772 3.2814C13.6655 3.2814 13.9803 2.9666 13.9803 2.5783V0.70335C13.9803 0.315048 13.6655 0.000244141 13.2772 0.000244141C12.8889 0.000244141 12.5741 0.315048 12.5741 0.70335V0.937719H12.1657C11.2009 0.937719 10.3143 1.3795 9.73328 2.14973C9.15223 2.92001 8.97107 3.89381 9.23614 4.82149L11.1023 11.353C11.4438 12.5482 12.1489 13.5757 13.1413 14.3243C13.354 14.4847 13.5758 14.6279 13.8047 14.7555L15.8553 19.5956V20.1031C15.8553 21.4762 14.7382 22.5934 13.365 22.5934C11.9918 22.5934 10.8747 21.4762 10.8747 20.1031V15.2811C10.8747 13.0583 9.06631 11.2499 6.84356 11.2499C4.62081 11.2499 2.81242 13.0583 2.81242 15.2811V16.9455C1.20972 17.2721 0 18.6925 0 20.3903C0 22.3288 1.57707 23.9058 3.51553 23.9058C5.45399 23.9058 7.03106 22.3288 7.03106 20.3903C7.03106 18.6926 5.82134 17.2722 4.21863 16.9455V15.2811C4.21863 13.8337 5.3962 12.6561 6.84356 12.6561C8.29093 12.6561 9.46849 13.8337 9.46849 15.2811V20.1031C9.46849 22.2516 11.2165 23.9996 13.365 23.9996C15.5136 23.9996 17.2615 22.2516 17.2615 20.1031V19.5956L19.3122 14.7555C19.541 14.6279 19.7629 14.4847 19.9756 14.3243C20.968 13.5757 21.673 12.5482 22.0146 11.353L23.8807 4.82149C24.1458 3.89386 23.9645 2.92001 23.3835 2.14978ZM5.62485 20.3903C5.62485 21.5534 4.67861 22.4996 3.51553 22.4996C2.35245 22.4996 1.40621 21.5534 1.40621 20.3903C1.40621 19.2272 2.35245 18.281 3.51553 18.281C4.67861 18.281 5.62485 19.2272 5.62485 20.3903ZM16.5584 17.6505L15.5998 15.3878C15.9137 15.441 16.2339 15.4686 16.5585 15.4686C16.883 15.4686 17.2032 15.441 17.5171 15.3878L16.5584 17.6505Z" fill="#979C9E"/>
<path d="M3.51562 21.0935C3.90395 21.0935 4.21875 20.7787 4.21875 20.3904C4.21875 20.0021 3.90395 19.6873 3.51562 19.6873C3.1273 19.6873 2.8125 20.0021 2.8125 20.3904C2.8125 20.7787 3.1273 21.0935 3.51562 21.0935Z" fill="#979C9E"/>
</g>
<defs>
<clipPath id="clip0_48_1264">
<rect width="24" height="24" fill="white"/>
</clipPath>
</defs>
</svg>
